<?xml version="1.0" encoding="UTF-8" standalone="no"?>
<svg
   width="221.35536"
   zoomAndPan="magnify"
   viewBox="0 0 166.01652 220.06675"
   height="293.42233"
   preserveAspectRatio="xMidYMid"
   version="1.0"
   id="svg132"
   sodipodi:docname="Itinero (6).svg"
   inkscape:version="1.2.2 (732a01da63, 2022-12-09)"
   xmlns:inkscape="http://www.inkscape.org/namespaces/inkscape"
   xmlns:sodipodi="http://sodipodi.sourceforge.net/DTD/sodipodi-0.dtd"
   xmlns="http://www.w3.org/2000/svg"
   xmlns:svg="http://www.w3.org/2000/svg">
  <sodipodi:namedview
     id="namedview134"
     pagecolor="#505050"
     bordercolor="#ffffff"
     borderopacity="1"
     inkscape:showpageshadow="0"
     inkscape:pageopacity="0"
     inkscape:pagecheckerboard="1"
     inkscape:deskcolor="#505050"
     showgrid="false"
     inkscape:zoom="0.69166667"
     inkscape:cx="58.554217"
     inkscape:cy="140.96386"
     inkscape:window-width="1920"
     inkscape:window-height="1013"
     inkscape:window-x="-9"
     inkscape:window-y="29"
     inkscape:window-maximized="1"
     inkscape:current-layer="svg132" />
  <defs
     id="defs62">
    <clipPath
       id="befeb92ae6">
      <path
         d="m 697.91406,454.85547 h 49.97266 v 56.60937 h -49.97266 z m 0,0"
         clip-rule="nonzero"
         id="path2" />
    </clipPath>
    <clipPath
       id="eec0f0d096">
      <path
         d="m 722.89844,454.85547 c -13.80078,0 -24.98438,12.66015 -24.98438,28.27734 0,15.61719 11.1836,28.27735 24.98438,28.27735 13.80078,0 24.98828,-12.66016 24.98828,-28.27735 0,-15.61719 -11.1875,-28.27734 -24.98828,-28.27734 z m 0,0"
         clip-rule="nonzero"
         id="path5" />
    </clipPath>
    <clipPath
       id="bcb36c3952">
      <path
         d="M 0.914062,0.855469 H 50.886719 V 57.441406 H 0.914062 Z m 0,0"
         clip-rule="nonzero"
         id="path8" />
    </clipPath>
    <clipPath
       id="b5fe0b66a9">
      <path
         d="m 25.898438,0.855469 c -13.800782,0 -24.984376,12.660156 -24.984376,28.277343 0,15.617188 11.183594,28.277344 24.984376,28.277344 13.800781,0 24.988281,-12.660156 24.988281,-28.277344 0,-15.617187 -11.1875,-28.277343 -24.988281,-28.277343 z m 0,0"
         clip-rule="nonzero"
         id="path11" />
    </clipPath>
    <clipPath
       id="a2b6f93884">
      <rect
         x="0"
         width="51"
         y="0"
         height="58"
         id="rect14" />
    </clipPath>
    <clipPath
       id="893e2197b5">
      <path
         d="m 710.46875,419.62109 h 56.55469 v 56.5586 h -56.55469 z m 0,0"
         clip-rule="nonzero"
         id="path17" />
    </clipPath>
    <clipPath
       id="a340a90daf">
      <path
         d="m 738.74609,419.62109 c -15.61718,0 -28.27734,12.66016 -28.27734,28.28125 0,15.61719 12.66016,28.27735 28.27734,28.27735 15.61719,0 28.27735,-12.66016 28.27735,-28.27735 0,-15.62109 -12.66016,-28.28125 -28.27735,-28.28125 z m 0,0"
         clip-rule="nonzero"
         id="path20" />
    </clipPath>
    <clipPath
       id="ec46e55be3">
      <path
         d="M 0.46875,0.621094 H 57.023438 V 57.179688 H 0.46875 Z m 0,0"
         clip-rule="nonzero"
         id="path23" />
    </clipPath>
    <clipPath
       id="5dac7082f4">
      <path
         d="m 28.746094,0.621094 c -15.617188,0 -28.277344,12.660156 -28.277344,28.28125 0,15.617187 12.660156,28.277344 28.277344,28.277344 15.617187,0 28.277344,-12.660157 28.277344,-28.277344 0,-15.621094 -12.660157,-28.28125 -28.277344,-28.28125 z m 0,0"
         clip-rule="nonzero"
         id="path26" />
    </clipPath>
    <clipPath
       id="e1f19ca2c6">
      <rect
         x="0"
         width="58"
         y="0"
         height="58"
         id="rect29" />
    </clipPath>
    <clipPath
       id="1230309d81">
      <path
         d="m 679.55078,423.47656 h 56.55859 v 56.5586 h -56.55859 z m 0,0"
         clip-rule="nonzero"
         id="path32" />
    </clipPath>
    <clipPath
       id="f8ad7e181b">
      <path
         d="m 707.82812,423.47656 c -15.61718,0 -28.27734,12.66406 -28.27734,28.28125 0,15.61719 12.66016,28.27735 28.27734,28.27735 15.6211,0 28.28125,-12.66016 28.28125,-28.27735 0,-15.61719 -12.66015,-28.28125 -28.28125,-28.28125 z m 0,0"
         clip-rule="nonzero"
         id="path35" />
    </clipPath>
    <clipPath
       id="7e320aaa7f">
      <path
         d="M 0.550781,0.476562 H 57.109375 V 57.035156 H 0.550781 Z m 0,0"
         clip-rule="nonzero"
         id="path38" />
    </clipPath>
    <clipPath
       id="72415841db">
      <path
         d="m 28.828125,0.476562 c -15.617187,0 -28.277344,12.664063 -28.277344,28.28125 0,15.617188 12.660157,28.277344 28.277344,28.277344 15.621094,0 28.28125,-12.660156 28.28125,-28.277344 0,-15.617187 -12.660156,-28.28125 -28.28125,-28.28125 z m 0,0"
         clip-rule="nonzero"
         id="path41" />
    </clipPath>
    <clipPath
       id="ab6c0acc7c">
      <rect
         x="0"
         width="58"
         y="0"
         height="58"
         id="rect44" />
    </clipPath>
    <clipPath
       id="6924e0a2f1">
      <path
         d="m 643.37891,306.40625 h 153.4414 v 153.44141 h -153.4414 z m 0,0"
         clip-rule="nonzero"
         id="path47" />
    </clipPath>
    <clipPath
       id="6aee4fbd36">
      <path
         d="m 720.09766,306.40625 c -42.3711,0 -76.71875,34.34766 -76.71875,76.71875 0,42.37109 34.34765,76.72266 76.71875,76.72266 42.37109,0 76.72265,-34.35157 76.72265,-76.72266 0,-42.37109 -34.35156,-76.71875 -76.72265,-76.71875 z m 0,0"
         clip-rule="nonzero"
         id="path50" />
    </clipPath>
    <clipPath
       id="d4290483c7">
      <path
         d="M 0.378906,0.40625 H 153.82031 V 153.84766 H 0.378906 Z m 0,0"
         clip-rule="nonzero"
         id="path53" />
    </clipPath>
    <clipPath
       id="2a0d64c9e8">
      <path
         d="m 77.097656,0.40625 c -42.371094,0 -76.71875,34.347656 -76.71875,76.71875 0,42.37109 34.347656,76.72266 76.71875,76.72266 42.371094,0 76.722654,-34.35157 76.722654,-76.72266 0,-42.371094 -34.35156,-76.71875 -76.722654,-76.71875 z m 0,0"
         clip-rule="nonzero"
         id="path56" />
    </clipPath>
    <clipPath
       id="0470e38b35">
      <rect
         x="0"
         width="154"
         y="0"
         height="154"
         id="rect59" />
    </clipPath>
  </defs>
  <g
     clip-path="url(#befeb92ae6)"
     id="g76"
     transform="translate(-636.56093,-299.00518)">
    <g
       clip-path="url(#eec0f0d096)"
       id="g74">
      <g
         transform="translate(697,454)"
         id="g72">
        <g
           clip-path="url(#a2b6f93884)"
           id="g70">
          <g
             clip-path="url(#bcb36c3952)"
             id="g68">
            <g
               clip-path="url(#b5fe0b66a9)"
               id="g66">
              <path
                 fill="#7025bc"
                 d="M 0.914062,0.855469 H 50.886719 V 57.464844 H 0.914062 Z m 0,0"
                 fill-opacity="1"
                 fill-rule="nonzero"
                 id="path64" />
            </g>
          </g>
        </g>
      </g>
    </g>
  </g>
  <g
     clip-path="url(#893e2197b5)"
     id="g90"
     transform="translate(-636.56093,-299.00518)">
    <g
       clip-path="url(#a340a90daf)"
       id="g88">
      <g
         transform="translate(710,419)"
         id="g86">
        <g
           clip-path="url(#e1f19ca2c6)"
           id="g84">
          <g
             clip-path="url(#ec46e55be3)"
             id="g82">
            <g
               clip-path="url(#5dac7082f4)"
               id="g80">
              <path
                 fill="#7025bc"
                 d="M 0.46875,0.621094 H 57.023438 V 57.179688 H 0.46875 Z m 0,0"
                 fill-opacity="1"
                 fill-rule="nonzero"
                 id="path78" />
            </g>
          </g>
        </g>
      </g>
    </g>
  </g>
  <g
     clip-path="url(#1230309d81)"
     id="g104"
     transform="translate(-636.56093,-299.00518)">
    <g
       clip-path="url(#f8ad7e181b)"
       id="g102">
      <g
         transform="translate(679,423)"
         id="g100">
        <g
           clip-path="url(#ab6c0acc7c)"
           id="g98">
          <g
             clip-path="url(#7e320aaa7f)"
             id="g96">
            <g
               clip-path="url(#72415841db)"
               id="g94">
              <path
                 fill="#7025bc"
                 d="M 0.550781,0.476562 H 57.109375 V 57.035156 H 0.550781 Z m 0,0"
                 fill-opacity="1"
                 fill-rule="nonzero"
                 id="path92" />
            </g>
          </g>
        </g>
      </g>
    </g>
  </g>
  <g
     clip-path="url(#6924e0a2f1)"
     id="g118"
     transform="translate(-636.56093,-299.00518)">
    <g
       clip-path="url(#6aee4fbd36)"
       id="g116">
      <g
         transform="translate(643,306)"
         id="g114">
        <g
           clip-path="url(#0470e38b35)"
           id="g112">
          <g
             clip-path="url(#d4290483c7)"
             id="g110">
            <g
               clip-path="url(#2a0d64c9e8)"
               id="g108">
              <path
                 fill="#7025bc"
                 d="M 0.378906,0.40625 H 153.82031 V 153.84766 H 0.378906 Z m 0,0"
                 fill-opacity="1"
                 fill-rule="nonzero"
                 id="path106" />
            </g>
          </g>
        </g>
      </g>
    </g>
  </g>
  <path
     fill="#7025bc"
     d="m 142.81016,117.27998 c 11.23047,-21.906249 12.86719,-46.160159 0.4961,-68.019539 -10.28907,-18.17578 -28.40235,-31.16796 -49.035164,-34.6875 -37.42969,-6.3867104 -73.66016,20.42969 -79.55078,57.66016 -2.69141,17.02344 1.47656,33.957029 10.47266,48.472659 4.5625,7.35937 9.19921,14.67578 13.80078,22.01172 12.04297,19.20312 23.80859,38.61328 36.14062,57.63671 1.67969,2.58985 3.21875,5.125 6.64453,5.69922 5.15625,0.86719 7.67969,-3.07031 10.06641,-6.88281 3.38281,-5.39844 6.76562,-10.79687 10.148444,-16.19531 13.62109,-21.7461 28.72265,-43.0625 40.8164,-65.69531 z m -59.683594,-3.32032 c -15.05078,0 -27.54297,-12.59765 -27.60156,-27.601559 -0.0625,-14.96094 12.64453,-27.66406 27.60156,-27.60156 15.05078,0.0625 26.316414,11.8789 27.519534,26.35156 0.0703,0.38672 0.0977,0.80469 0.082,1.25 0.0156,0.44922 -0.0117,0.86719 -0.082,1.25391 -1.20312,14.429679 -12.468754,26.347649 -27.519534,26.347649 z m 0,0"
     fill-opacity="1"
     fill-rule="nonzero"
     id="path120" />
  <path
     fill="#7025bc"
     d="m 155.03282,124.02607 c 11.22656,-22.05859 14.98047,-46.312499 5.88672,-69.898439 -7.61719,-19.76953 -22.375,-36.6289 -41.53516,-45.9257804 C 79.978126,-10.927059 30.946876,4.4870106 10.040626,43.174511 -0.9749936,63.553411 -3.1507736,88.404981 4.6265664,110.2956 c 3.70312,10.42188 9.7187496,19.40625 15.5390596,28.6875 14.10938,22.50391 28.21875,45.00781 42.32813,67.51172 2.70312,4.30859 5.47656,8.36719 10.09765,10.91406 10.00391,5.51563 22.14063,2.08985 28.628914,-6.98047 9.91016,-13.85937 18.28906,-29.10156 27.33594,-43.54297 8.78515,-14.01953 18.34765,-27.68359 26.16797,-42.27343 0.0508,-0.0899 0.10156,-0.1836 0.15234,-0.28125 0.0547,-0.10157 0.10547,-0.20313 0.15234,-0.30469 z m -73.253914,82.02734 c -3.42578,-0.57422 -4.96484,-3.10937 -6.64453,-5.69922 -12.33203,-19.02343 -24.09765,-38.43359 -36.14062,-57.63671 -4.60157,-7.33594 -9.23828,-14.64844 -13.80078,-22.01172 -8.9961,-14.51563 -13.16407,-31.449219 -10.47266,-48.472659 5.89062,-37.23047 42.12109,-64.0468704 79.55078,-57.66016 20.632814,3.51954 38.746094,16.51172 49.035164,34.6875 12.37109,21.85938 10.73437,46.11329 -0.4961,68.019539 -12.08984,22.63281 -27.19531,43.94921 -40.8164,65.69531 -3.382824,5.39844 -6.765634,10.79687 -10.148444,16.19531 -2.38672,3.8125 -4.91016,7.75 -10.06641,6.88281 z m 0,0"
     fill-opacity="1"
     fill-rule="nonzero"
     id="path122" />
  <path
     fill="#7025bc"
     d="m 100.24376,86.358101 c -0.933604,-22.00391 -34.085944,-22.15625 -34.238284,0 -0.15235,22.171879 33.30468,21.968749 34.238284,0 z m 0,0"
     fill-opacity="1"
     fill-rule="nonzero"
     id="path124" />
  <path
     fill="#7025bc"
     d="m 110.6461,87.612011 c 0.0703,-0.38672 0.10156,-0.80469 0.082,-1.25391 0.0156,-0.44922 -0.0117,-0.86328 -0.082,-1.25 -1.20312,-14.47266 -12.468754,-26.28906 -27.519534,-26.35156 -14.95703,-0.0625 -27.66406,12.64062 -27.60156,27.60156 0.0586,15.003909 12.55078,27.601559 27.60156,27.601559 15.04687,0 26.316414,-11.91797 27.519534,-26.347649 z m -44.640624,-1.25391 c 0.15234,-22.15625 33.30468,-22.00391 34.238284,0 -0.933604,21.968749 -34.390634,22.171879 -34.238284,0 z m 0,0"
     fill-opacity="1"
     fill-rule="nonzero"
     id="path126" />
  <path
     stroke-linecap="round"
     fill="none"
     stroke-linejoin="miter"
     d="M 102.76329,160.84249 H 90.040631 c -7.027344,0 -12.722657,-5.69922 -12.722657,-12.72267 V 54.186227"
     stroke="#ffffff"
     stroke-width="12.75"
     stroke-opacity="1"
     stroke-miterlimit="4"
     id="path128" />
  <path
     stroke-linecap="round"
     fill="none"
     stroke-linejoin="round"
     d="M 58.192973,76.498728 77.317974,50.998727 96.442976,76.498728"
     stroke="#ffffff"
     stroke-width="12.75"
     stroke-opacity="1"
     stroke-miterlimit="4"
     id="path130" />
</svg>
